<svg width="40" height="40" viewBox="0 0 40 40" fill="none" xmlns="http://www.w3.org/2000/svg">
<path d="M17.8828 34.6297C11.0222 33.419 5.77588 27.4462 5.77588 20.2627C5.77588 12.2721 12.3136 5.73438 20.3042 5.73438C28.2948 5.73438 34.8326 12.2721 34.8326 20.2627C34.8326 27.4462 29.5863 33.419 22.7256 34.6297L21.9185 33.984H18.69L17.8828 34.6297Z" fill="url(#paint0_linear_103_393)"/>
<path d="M25.9544 24.2984L26.6001 20.2627H22.7259V17.4378C22.7259 16.3078 23.1294 15.4199 24.9051 15.4199H26.7615V11.7071C25.7122 11.5457 24.5823 11.3843 23.533 11.3843C20.2237 11.3843 17.8831 13.4021 17.8831 17.0342V20.2627H14.251V24.2984H17.8831V34.549C18.6902 34.7104 19.4973 34.7911 20.3045 34.7911C21.1116 34.7911 21.9187 34.7104 22.7259 34.549V24.2984H25.9544Z" fill="white"/>
<defs>
<linearGradient id="paint0_linear_103_393" x1="20.3042" y1="33.7854" x2="20.3042" y2="5.73438" gradientUnits="userSpaceOnUse">
<stop stop-color="#0062E0"/>
<stop offset="1" stop-color="#19AFFF"/>
</linearGradient>
</defs>
</svg>
