<svg width="28" height="28" viewBox="0 0 28 28" fill="none" xmlns="http://www.w3.org/2000/svg">
<path fill-rule="evenodd" clip-rule="evenodd" d="M11.7724 14.8132L8.02543 13.5642C5.67221 12.7798 4.49561 12.3876 4.49561 11.6668C4.49561 10.9461 5.67221 10.5539 8.02543 9.76948L19.5386 5.93176C21.1944 5.37983 22.0223 5.10386 22.4593 5.54088C22.8963 5.97789 22.6203 6.80579 22.0684 8.46158L18.2307 19.9747L18.2307 19.9748C17.4463 22.328 17.0541 23.5046 16.3333 23.5046C15.6126 23.5046 15.2204 22.328 14.436 19.9747L13.1868 16.2273L18.2071 11.207C18.5976 10.8164 18.5976 10.1833 18.2071 9.79275C17.8166 9.40222 17.1834 9.40222 16.7929 9.79275L11.7724 14.8132Z" fill="#1DC1CC"/>
</svg>
