<svg width="40" height="40" viewBox="0 0 40 40" fill="none" xmlns="http://www.w3.org/2000/svg">
<path d="M20.0469 6.1748C16.2209 6.1748 15.7407 6.19153 14.238 6.25992C12.7383 6.3286 11.7146 6.56604 10.8188 6.91443C9.89229 7.27426 9.10631 7.75561 8.32327 8.53897C7.53964 9.32203 7.05831 10.108 6.69732 11.0343C6.34806 11.9304 6.11033 12.9544 6.04283 14.4536C5.97562 15.9564 5.95801 16.4368 5.95801 20.2629C5.95801 24.089 5.97503 24.5677 6.04312 26.0704C6.11209 27.5702 6.34953 28.594 6.69761 29.4897C7.05773 30.4163 7.53906 31.2023 8.32239 31.9854C9.10514 32.769 9.89111 33.2516 10.8171 33.6114C11.7134 33.9598 12.7374 34.1972 14.2369 34.2659C15.7396 34.3343 16.2194 34.351 20.0451 34.351C23.8714 34.351 24.3501 34.3343 25.8528 34.2659C27.3525 34.1972 28.3774 33.9598 29.2737 33.6114C30.2 33.2516 30.9848 32.769 31.7675 31.9854C32.5512 31.2023 33.0325 30.4163 33.3935 29.49C33.7398 28.594 33.9775 27.5699 34.048 26.0707C34.1155 24.568 34.1331 24.089 34.1331 20.2629C34.1331 16.4368 34.1155 15.9566 34.048 14.4539C33.9775 12.9541 33.7398 11.9304 33.3935 11.0346C33.0325 10.108 32.5512 9.32203 31.7675 8.53897C30.9839 7.75531 30.2003 7.27397 29.2728 6.91443C28.3747 6.56604 27.3504 6.3286 25.8507 6.25992C24.348 6.19153 23.8696 6.1748 20.0425 6.1748H20.0469ZM18.7831 8.7136C19.1582 8.71301 19.5767 8.7136 20.0469 8.7136C23.8083 8.7136 24.2541 8.7271 25.7395 8.79461C27.113 8.85742 27.8585 9.08693 28.3551 9.27977C29.0125 9.53511 29.4812 9.84035 29.974 10.3334C30.4671 10.8265 30.7723 11.2961 31.0282 11.9536C31.221 12.4496 31.4508 13.1951 31.5134 14.5687C31.5809 16.0538 31.5955 16.4999 31.5955 20.2597C31.5955 24.0194 31.5809 24.4656 31.5134 25.9507C31.4506 27.3243 31.221 28.0698 31.0282 28.5658C30.7729 29.2232 30.4671 29.6914 29.974 30.1842C29.4809 30.6773 29.0128 30.9825 28.3551 31.2378C27.8591 31.4316 27.113 31.6605 25.7395 31.7233C24.2544 31.7908 23.8083 31.8055 20.0469 31.8055C16.2852 31.8055 15.8393 31.7908 14.3543 31.7233C12.9807 31.6599 12.2352 31.4304 11.7384 31.2375C11.0809 30.9822 10.6113 30.677 10.1183 30.1839C9.62521 29.6908 9.31997 29.2224 9.06405 28.5646C8.87122 28.0686 8.64142 27.3231 8.5789 25.9495C8.5114 24.4644 8.4979 24.0183 8.4979 20.2562C8.4979 16.494 8.5114 16.0503 8.5789 14.5652C8.64171 13.1916 8.87122 12.4461 9.06405 11.9495C9.31939 11.292 9.62521 10.8224 10.1183 10.3293C10.6113 9.83624 11.0809 9.531 11.7384 9.27507C12.235 9.08136 12.9807 8.85243 14.3543 8.78932C15.6539 8.73062 16.1575 8.71301 18.7831 8.71008V8.7136ZM27.5668 11.0528C26.6334 11.0528 25.8762 11.8092 25.8762 12.7428C25.8762 13.6761 26.6334 14.4334 27.5668 14.4334C28.5001 14.4334 29.2573 13.6761 29.2573 12.7428C29.2573 11.8095 28.5001 11.0522 27.5668 11.0522V11.0528ZM20.0469 13.0281C16.0515 13.0281 12.8123 16.2675 12.8123 20.2629C12.8123 24.2584 16.0515 27.4963 20.0469 27.4963C24.0422 27.4963 27.2803 24.2584 27.2803 20.2629C27.2803 16.2675 24.0419 13.0281 20.0466 13.0281H20.0469ZM20.0469 15.5669C22.6402 15.5669 24.7428 17.6692 24.7428 20.2629C24.7428 22.8563 22.6402 24.9589 20.0469 24.9589C17.4533 24.9589 15.351 22.8563 15.351 20.2629C15.351 17.6692 17.4533 15.5669 20.0469 15.5669Z" fill="url(#paint0_radial_103_394)"/>
<path d="M20.0469 6.1748C16.2209 6.1748 15.7407 6.19153 14.238 6.25992C12.7383 6.3286 11.7146 6.56604 10.8188 6.91443C9.89229 7.27426 9.10631 7.75561 8.32327 8.53897C7.53964 9.32203 7.05831 10.108 6.69732 11.0343C6.34806 11.9304 6.11033 12.9544 6.04283 14.4536C5.97562 15.9564 5.95801 16.4368 5.95801 20.2629C5.95801 24.089 5.97503 24.5677 6.04312 26.0704C6.11209 27.5702 6.34953 28.594 6.69761 29.4897C7.05773 30.4163 7.53906 31.2023 8.32239 31.9854C9.10514 32.769 9.89111 33.2516 10.8171 33.6114C11.7134 33.9598 12.7374 34.1972 14.2369 34.2659C15.7396 34.3343 16.2194 34.351 20.0451 34.351C23.8714 34.351 24.3501 34.3343 25.8528 34.2659C27.3525 34.1972 28.3774 33.9598 29.2737 33.6114C30.2 33.2516 30.9848 32.769 31.7675 31.9854C32.5512 31.2023 33.0325 30.4163 33.3935 29.49C33.7398 28.594 33.9775 27.5699 34.048 26.0707C34.1155 24.568 34.1331 24.089 34.1331 20.2629C34.1331 16.4368 34.1155 15.9566 34.048 14.4539C33.9775 12.9541 33.7398 11.9304 33.3935 11.0346C33.0325 10.108 32.5512 9.32203 31.7675 8.53897C30.9839 7.75531 30.2003 7.27397 29.2728 6.91443C28.3747 6.56604 27.3504 6.3286 25.8507 6.25992C24.348 6.19153 23.8696 6.1748 20.0425 6.1748H20.0469ZM18.7831 8.7136C19.1582 8.71301 19.5767 8.7136 20.0469 8.7136C23.8083 8.7136 24.2541 8.7271 25.7395 8.79461C27.113 8.85742 27.8585 9.08693 28.3551 9.27977C29.0125 9.53511 29.4812 9.84035 29.974 10.3334C30.4671 10.8265 30.7723 11.2961 31.0282 11.9536C31.221 12.4496 31.4508 13.1951 31.5134 14.5687C31.5809 16.0538 31.5955 16.4999 31.5955 20.2597C31.5955 24.0194 31.5809 24.4656 31.5134 25.9507C31.4506 27.3243 31.221 28.0698 31.0282 28.5658C30.7729 29.2232 30.4671 29.6914 29.974 30.1842C29.4809 30.6773 29.0128 30.9825 28.3551 31.2378C27.8591 31.4316 27.113 31.6605 25.7395 31.7233C24.2544 31.7908 23.8083 31.8055 20.0469 31.8055C16.2852 31.8055 15.8393 31.7908 14.3543 31.7233C12.9807 31.6599 12.2352 31.4304 11.7384 31.2376C11.0809 30.9822 10.6113 30.677 10.1183 30.1839C9.62521 29.6908 9.31997 29.2224 9.06405 28.5646C8.87122 28.0686 8.64142 27.3231 8.5789 25.9495C8.5114 24.4644 8.4979 24.0183 8.4979 20.2562C8.4979 16.4941 8.5114 16.0503 8.5789 14.5652C8.64171 13.1916 8.87122 12.4461 9.06405 11.9495C9.31939 11.292 9.62521 10.8224 10.1183 10.3293C10.6113 9.83625 11.0809 9.531 11.7384 9.27507C12.235 9.08136 12.9807 8.85243 14.3543 8.78932C15.6539 8.73062 16.1575 8.71301 18.7831 8.71008V8.7136ZM27.5668 11.0528C26.6334 11.0528 25.8762 11.8092 25.8762 12.7428C25.8762 13.6761 26.6334 14.4334 27.5668 14.4334C28.5001 14.4334 29.2573 13.6761 29.2573 12.7428C29.2573 11.8095 28.5001 11.0522 27.5668 11.0522V11.0528ZM20.0469 13.0281C16.0515 13.0281 12.8123 16.2675 12.8123 20.2629C12.8123 24.2584 16.0515 27.4963 20.0469 27.4963C24.0422 27.4963 27.2803 24.2584 27.2803 20.2629C27.2803 16.2675 24.0419 13.0281 20.0466 13.0281H20.0469ZM20.0469 15.5669C22.6402 15.5669 24.7428 17.6692 24.7428 20.2629C24.7428 22.8563 22.6402 24.959 20.0469 24.959C17.4533 24.959 15.351 22.8563 15.351 20.2629C15.351 17.6692 17.4533 15.5669 20.0469 15.5669Z" fill="url(#paint1_radial_103_394)"/>
<defs>
<radialGradient id="paint0_radial_103_394" cx="0" cy="0" r="1" gradientUnits="userSpaceOnUse" gradientTransform="translate(13.442 36.5212) rotate(-90) scale(27.9247 25.9711)">
<stop stop-color="#FFDD55"/>
<stop offset="0.1" stop-color="#FFDD55"/>
<stop offset="0.5" stop-color="#FF543E"/>
<stop offset="1" stop-color="#C837AB"/>
</radialGradient>
<radialGradient id="paint1_radial_103_394" cx="0" cy="0" r="1" gradientUnits="userSpaceOnUse" gradientTransform="translate(1.23853 8.20457) rotate(78.6811) scale(12.4824 51.4512)">
<stop stop-color="#3771C8"/>
<stop offset="0.128" stop-color="#3771C8"/>
<stop offset="1" stop-color="#6600FF" stop-opacity="0"/>
</radialGradient>
</defs>
</svg>
